<svg width="30" height="30" viewBox="0 0 30 30" fill="none" xmlns="http://www.w3.org/2000/svg">
<path d="M22.5633 9.28703C22.5667 9.03737 22.469 8.79693 22.2924 8.62037C22.1159 8.44382 21.8754 8.34614 21.6258 8.34953C21.108 8.34953 20.6883 8.76927 20.6883 9.28703V19.3745L9.02575 7.69953C8.79204 7.44872 8.44006 7.34547 8.10789 7.4303C7.77573 7.51513 7.51635 7.77451 7.43152 8.10667C7.34669 8.43884 7.44994 8.79082 7.70075 9.02453L19.3758 20.6995H9.28825C8.77049 20.6995 8.35075 21.1193 8.35075 21.637C8.35075 22.1548 8.77049 22.5745 9.28825 22.5745H21.6383C22.156 22.5745 22.5758 22.1548 22.5758 21.637L22.5633 9.28703Z" fill="#181818"/>
</svg>
