<svg width="30" height="30" viewBox="0 0 30 30" fill="none" xmlns="http://www.w3.org/2000/svg">
<path d="M15 25.005L14.0525 24.1488C12.0125 22.2854 10.325 20.6904 8.99 19.3637C7.65584 18.0362 6.6025 16.8654 5.83 15.8512C5.0575 14.8371 4.5175 13.9204 4.21 13.1012C3.9025 12.2821 3.74917 11.4567 3.75 10.625C3.75 9.035 4.29 7.7 5.37 6.62C6.45 5.54 7.785 5 9.375 5C10.475 5 11.5063 5.28125 12.4688 5.84375C13.4313 6.40625 14.275 7.22458 15 8.29875C15.725 7.22458 16.5688 6.40625 17.5313 5.84375C18.4938 5.28125 19.525 5 20.625 5C22.215 5 23.55 5.54 24.63 6.62C25.71 7.7 26.25 9.035 26.25 10.625C26.25 11.455 26.0967 12.28 25.79 13.1C25.4825 13.9217 24.9425 14.8392 24.17 15.8525C23.3975 16.8658 22.3479 18.0362 21.0213 19.3637C19.6946 20.6904 18.0029 22.2854 15.9463 24.1488L15 25.005Z" fill="#181818"/>
</svg>
