<svg width="30" height="30" viewBox="0 0 30 30" fill="none" xmlns="http://www.w3.org/2000/svg">
<path d="M7 8.5C7 8.23478 7.10536 7.98043 7.29289 7.79289C7.48043 7.60536 7.73478 7.5 8 7.5H22C22.2652 7.5 22.5196 7.60536 22.7071 7.79289C22.8946 7.98043 23 8.23478 23 8.5C23 8.76522 22.8946 9.01957 22.7071 9.20711C22.5196 9.39464 22.2652 9.5 22 9.5H8C7.73478 9.5 7.48043 9.39464 7.29289 9.20711C7.10536 9.01957 7 8.76522 7 8.5ZM7 14.5C7 14.2348 7.10536 13.9804 7.29289 13.7929C7.48043 13.6054 7.73478 13.5 8 13.5H22C22.2652 13.5 22.5196 13.6054 22.7071 13.7929C22.8946 13.9804 23 14.2348 23 14.5C23 14.7652 22.8946 15.0196 22.7071 15.2071C22.5196 15.3946 22.2652 15.5 22 15.5H8C7.73478 15.5 7.48043 15.3946 7.29289 15.2071C7.10536 15.0196 7 14.7652 7 14.5ZM8 19.5C7.73478 19.5 7.48043 19.6054 7.29289 19.7929C7.10536 19.9804 7 20.2348 7 20.5C7 20.7652 7.10536 21.0196 7.29289 21.2071C7.48043 21.3946 7.73478 21.5 8 21.5H22C22.2652 21.5 22.5196 21.3946 22.7071 21.2071C22.8946 21.0196 23 20.7652 23 20.5C23 20.2348 22.8946 19.9804 22.7071 19.7929C22.5196 19.6054 22.2652 19.5 22 19.5H8Z" fill="#181818"/>
</svg>
