<svg width="30" height="30" viewBox="0 0 30 30" fill="none" xmlns="http://www.w3.org/2000/svg">
<path d="M24.6875 13.75H15.625V4.6875C15.625 4.16973 15.2053 3.75 14.6875 3.75C14.1697 3.75 13.75 4.16973 13.75 4.6875V13.75H4.6875C4.16973 13.75 3.75 14.1697 3.75 14.6875C3.75 15.2053 4.16973 15.625 4.6875 15.625H13.75V24.6875C13.75 25.2053 14.1697 25.625 14.6875 25.625C15.2053 25.625 15.625 25.2053 15.625 24.6875V15.625H24.6875C25.2053 15.625 25.625 15.2053 25.625 14.6875C25.625 14.1697 25.2053 13.75 24.6875 13.75Z" fill="black"/>
</svg>
