<svg width="147" height="111" viewBox="0 0 147 111" fill="none" xmlns="http://www.w3.org/2000/svg">
<circle cx="13.5" cy="1.5" r="1.5" fill="#484848"/>
<circle cx="25.5" cy="1.5" r="1.5" fill="#484848"/>
<circle cx="37.5" cy="1.5" r="1.5" fill="#484848"/>
<circle cx="49.5" cy="1.5" r="1.5" fill="#484848"/>
<circle cx="61.5" cy="1.5" r="1.5" fill="#484848"/>
<circle cx="73.5" cy="1.5" r="1.5" fill="#484848"/>
<circle cx="85.5" cy="1.5" r="1.5" fill="#484848"/>
<circle cx="97.5" cy="1.5" r="1.5" fill="#484848"/>
<circle cx="109.5" cy="1.5" r="1.5" fill="#484848"/>
<circle cx="121.5" cy="1.5" r="1.5" fill="#484848"/>
<circle cx="133.5" cy="1.5" r="1.5" fill="#484848"/>
<circle cx="145.5" cy="1.5" r="1.5" fill="#484848"/>
<circle cx="1.5" cy="13.5" r="1.5" fill="#484848"/>
<circle cx="13.5" cy="13.5" r="1.5" fill="#484848"/>
<circle cx="25.5" cy="13.5" r="1.5" fill="#484848"/>
<circle cx="37.5" cy="13.5" r="1.5" fill="#484848"/>
<circle cx="49.5" cy="13.5" r="1.5" fill="#484848"/>
<circle cx="61.5" cy="13.5" r="1.5" fill="#484848"/>
<circle cx="73.5" cy="13.5" r="1.5" fill="#484848"/>
<circle cx="85.5" cy="13.5" r="1.5" fill="#484848"/>
<circle cx="97.5" cy="13.5" r="1.5" fill="#484848"/>
<circle cx="109.5" cy="13.5" r="1.5" fill="#484848"/>
<circle cx="121.5" cy="13.5" r="1.5" fill="#484848"/>
<circle cx="133.5" cy="13.5" r="1.5" fill="#484848"/>
<circle cx="145.5" cy="13.5" r="1.5" fill="#484848"/>
<circle cx="1.5" cy="25.5" r="1.5" fill="#484848"/>
<circle cx="13.5" cy="25.5" r="1.5" fill="#484848"/>
<circle cx="25.5" cy="25.5" r="1.5" fill="#484848"/>
<circle cx="37.5" cy="25.5" r="1.5" fill="#484848"/>
<circle cx="49.5" cy="25.5" r="1.5" fill="#484848"/>
<circle cx="61.5" cy="25.5" r="1.5" fill="#484848"/>
<circle cx="73.5" cy="25.5" r="1.5" fill="#484848"/>
<circle cx="85.5" cy="25.5" r="1.5" fill="#484848"/>
<circle cx="97.5" cy="25.5" r="1.5" fill="#484848"/>
<circle cx="109.5" cy="25.5" r="1.5" fill="#484848"/>
<circle cx="121.5" cy="25.5" r="1.5" fill="#484848"/>
<circle cx="133.5" cy="25.5" r="1.5" fill="#484848"/>
<circle cx="145.5" cy="25.5" r="1.5" fill="#484848"/>
<circle cx="1.5" cy="37.5" r="1.5" fill="#484848"/>
<circle cx="13.5" cy="37.5" r="1.5" fill="#484848"/>
<circle cx="25.5" cy="37.5" r="1.5" fill="#484848"/>
<circle cx="37.5" cy="37.5" r="1.5" fill="#484848"/>
<circle cx="49.5" cy="37.5" r="1.5" fill="#484848"/>
<circle cx="61.5" cy="37.5" r="1.5" fill="#484848"/>
<circle cx="73.5" cy="37.5" r="1.5" fill="#484848"/>
<circle cx="85.5" cy="37.5" r="1.5" fill="#484848"/>
<circle cx="97.5" cy="37.5" r="1.5" fill="#484848"/>
<circle cx="109.5" cy="37.5" r="1.5" fill="#484848"/>
<circle cx="121.5" cy="37.5" r="1.5" fill="#484848"/>
<circle cx="133.5" cy="37.5" r="1.5" fill="#484848"/>
<circle cx="145.5" cy="37.5" r="1.5" fill="#484848"/>
<circle cx="1.5" cy="49.5" r="1.5" fill="#484848"/>
<circle cx="13.5" cy="49.5" r="1.5" fill="#484848"/>
<circle cx="25.5" cy="49.5" r="1.5" fill="#484848"/>
<circle cx="37.5" cy="49.5" r="1.5" fill="#484848"/>
<circle cx="49.5" cy="49.5" r="1.5" fill="#484848"/>
<circle cx="61.5" cy="49.5" r="1.5" fill="#484848"/>
<circle cx="73.5" cy="49.5" r="1.5" fill="#484848"/>
<circle cx="85.5" cy="49.5" r="1.5" fill="#484848"/>
<circle cx="97.5" cy="49.5" r="1.5" fill="#484848"/>
<circle cx="109.5" cy="49.5" r="1.5" fill="#484848"/>
<circle cx="121.5" cy="49.5" r="1.5" fill="#484848"/>
<circle cx="133.5" cy="49.5" r="1.5" fill="#484848"/>
<circle cx="145.5" cy="49.5" r="1.5" fill="#484848"/>
<circle cx="1.5" cy="61.5" r="1.5" fill="#484848"/>
<circle cx="13.5" cy="61.5" r="1.5" fill="#484848"/>
<circle cx="25.5" cy="61.5" r="1.5" fill="#484848"/>
<circle cx="37.5" cy="61.5" r="1.5" fill="#484848"/>
<circle cx="49.5" cy="61.5" r="1.5" fill="#484848"/>
<circle cx="61.5" cy="61.5" r="1.5" fill="#484848"/>
<circle cx="73.5" cy="61.5" r="1.5" fill="#484848"/>
<circle cx="85.5" cy="61.5" r="1.5" fill="#484848"/>
<circle cx="97.5" cy="61.5" r="1.5" fill="#484848"/>
<circle cx="109.5" cy="61.5" r="1.5" fill="#484848"/>
<circle cx="121.5" cy="61.5" r="1.5" fill="#484848"/>
<circle cx="133.5" cy="61.5" r="1.5" fill="#484848"/>
<circle cx="145.5" cy="61.5" r="1.5" fill="#484848"/>
<circle cx="1.5" cy="73.5" r="1.5" fill="#484848"/>
<circle cx="13.5" cy="73.5" r="1.5" fill="#484848"/>
<circle cx="25.5" cy="73.5" r="1.5" fill="#484848"/>
<circle cx="37.5" cy="73.5" r="1.5" fill="#484848"/>
<circle cx="49.5" cy="73.5" r="1.5" fill="#484848"/>
<circle cx="61.5" cy="73.5" r="1.5" fill="#484848"/>
<circle cx="73.5" cy="73.5" r="1.5" fill="#484848"/>
<circle cx="85.5" cy="73.5" r="1.5" fill="#484848"/>
<circle cx="97.5" cy="73.5" r="1.5" fill="#484848"/>
<circle cx="109.5" cy="73.5" r="1.5" fill="#484848"/>
<circle cx="121.5" cy="73.5" r="1.5" fill="#484848"/>
<circle cx="133.5" cy="73.5" r="1.5" fill="#484848"/>
<circle cx="145.5" cy="73.5" r="1.5" fill="#484848"/>
<circle cx="1.5" cy="85.5" r="1.5" fill="#484848"/>
<circle cx="13.5" cy="85.5" r="1.5" fill="#484848"/>
<circle cx="25.5" cy="85.5" r="1.5" fill="#484848"/>
<circle cx="37.5" cy="85.5" r="1.5" fill="#484848"/>
<circle cx="49.5" cy="85.5" r="1.5" fill="#484848"/>
<circle cx="61.5" cy="85.5" r="1.5" fill="#484848"/>
<circle cx="73.5" cy="85.5" r="1.5" fill="#484848"/>
<circle cx="85.5" cy="85.5" r="1.5" fill="#484848"/>
<circle cx="97.5" cy="85.5" r="1.5" fill="#484848"/>
<circle cx="109.5" cy="85.5" r="1.5" fill="#484848"/>
<circle cx="121.5" cy="85.5" r="1.5" fill="#484848"/>
<circle cx="133.5" cy="85.5" r="1.5" fill="#484848"/>
<circle cx="145.5" cy="85.5" r="1.5" fill="#484848"/>
<circle cx="1.5" cy="97.5" r="1.5" fill="#484848"/>
<circle cx="13.5" cy="97.5" r="1.5" fill="#484848"/>
<circle cx="25.5" cy="97.5" r="1.5" fill="#484848"/>
<circle cx="37.5" cy="97.5" r="1.5" fill="#484848"/>
<circle cx="49.5" cy="97.5" r="1.5" fill="#484848"/>
<circle cx="61.5" cy="97.5" r="1.5" fill="#484848"/>
<circle cx="73.5" cy="97.5" r="1.5" fill="#484848"/>
<circle cx="85.5" cy="97.5" r="1.5" fill="#484848"/>
<circle cx="97.5" cy="97.5" r="1.5" fill="#484848"/>
<circle cx="109.5" cy="97.5" r="1.5" fill="#484848"/>
<circle cx="121.5" cy="97.5" r="1.5" fill="#484848"/>
<circle cx="145.5" cy="97.5" r="1.5" fill="#484848"/>
<circle cx="1.5" cy="109.5" r="1.5" fill="#484848"/>
<circle cx="13.5" cy="109.5" r="1.5" fill="#484848"/>
<circle cx="25.5" cy="109.5" r="1.5" fill="#484848"/>
<circle cx="37.5" cy="109.5" r="1.5" fill="#484848"/>
<circle cx="49.5" cy="109.5" r="1.5" fill="#484848"/>
<circle cx="61.5" cy="109.5" r="1.5" fill="#484848"/>
<circle cx="73.5" cy="109.5" r="1.5" fill="#484848"/>
<circle cx="85.5" cy="109.5" r="1.5" fill="#484848"/>
<circle cx="97.5" cy="109.5" r="1.5" fill="#484848"/>
<circle cx="109.5" cy="109.5" r="1.5" fill="#484848"/>
<circle cx="121.5" cy="109.5" r="1.5" fill="#484848"/>
<circle cx="133.5" cy="109.5" r="1.5" fill="#484848"/>
<circle cx="145.5" cy="109.5" r="1.5" fill="#484848"/>
<circle cx="133.5" cy="97.5" r="1.5" fill="#484848"/>
</svg>
