<svg width="80" height="80" viewBox="0 0 80 80" fill="none" xmlns="http://www.w3.org/2000/svg">
<path d="M62.8 56.14L60 51.92C65.2 42.68 66.26 32.92 63.6 19.6C61.22 7.7 51.82 0 39.64 0C27.46 0 18.06 7.7 15.68 19.6C13.02 32.92 14.08 42.68 19.28 51.92L16.48 56.14C13.4 56.88 11 60.48 11 64.68C11 67.08 11.84 71.62 17.44 75.2C22.4 78.38 29.88 80 39.66 80C49.44 80 56.92 78.38 61.88 75.2C67.48 71.6 68.32 67.06 68.32 64.68C68.32 60.5 65.9 56.88 62.84 56.14H62.8ZM59.7 71.84C55.46 74.56 48.52 76 39.64 76C30.76 76 23.82 74.56 19.58 71.84C16.62 69.94 14.98 67.4 14.98 64.68C14.98 61.82 16.72 60 17.62 60C18.28 60 18.92 59.66 19.28 59.1L21.7 55.46C23.06 56.84 24.44 57.64 24.66 57.76C24.96 57.92 25.28 58 25.6 58C26.3 58 27 57.62 27.36 56.96C27.88 56 27.52 54.78 26.56 54.26C26.54 54.26 24.36 53.04 23.4 51.12C23.4 51.12 23.38 51.1 23.36 51.08C23.36 51.06 23.36 51.02 23.32 51C18.14 42.36 17 33.2 19.56 20.42C21.56 10.46 29.42 4.02 39.6 4.02C49.78 4.02 57.64 10.46 59.64 20.42C62.2 33.2 61.08 42.34 55.88 51C55.88 51.02 55.86 51.06 55.84 51.08C55.84 51.08 55.82 51.1 55.8 51.12C54.84 53.04 52.66 54.24 52.64 54.26C51.68 54.78 51.3 56 51.84 56.96C52.2 57.64 52.9 58.02 53.6 58.02C53.92 58.02 54.24 57.94 54.54 57.78C54.76 57.66 56.16 56.88 57.5 55.48L59.92 59.12C60.3 59.68 60.92 60.02 61.58 60.02C62.48 60.02 64.22 61.84 64.22 64.7C64.22 67.56 62.58 69.96 59.62 71.86L59.7 71.84Z" fill="currentColor"/>
<path d="M33.12 48.6799C33.12 51.0999 35.7 53.5999 40 53.5999C44.3 53.5999 46.88 51.0999 46.88 48.6799C46.88 46.5999 45.08 44.3999 40 44.3999C37.98 44.3999 36.34 44.7399 35.16 45.4399C33.86 46.1999 33.12 47.3799 33.12 48.6799ZM40 47.5999C41.9 47.5999 42.84 47.9799 43.22 48.1999C43.32 48.2599 43.66 48.4799 43.66 48.6799C43.66 49.1599 42.54 50.3999 39.98 50.3999C37.42 50.3999 36.3 49.1599 36.3 48.6799C36.3 48.3999 37.2 47.5999 39.98 47.5999H40Z" fill="currentColor"/>
<path d="M55.42 32.62C56.1 29.76 54.74 26.48 53.14 24.88C51.72 23.46 49.22 23.22 46.72 24.26C44.06 25.36 42.4 27.56 42.4 30.02C42.4 32.88 42.4 35.82 44.52 37.34C45.28 37.88 46.18 38.16 47.26 38.16C48.2 38.16 49.28 37.96 50.5 37.54C53.86 36.42 55.02 34.26 55.42 32.64V32.62ZM52.3 31.88C52.02 33.1 51.1 33.96 49.5 34.48C48 34.98 46.88 35.06 46.38 34.72C45.6 34.16 45.6 31.84 45.6 30C45.6 28.64 46.8 27.66 47.94 27.2C48.58 26.94 49.22 26.82 49.72 26.82C50.22 26.82 50.66 26.94 50.86 27.14C51.72 28 52.7 30.14 52.3 31.88Z" fill="currentColor"/>
<path d="M35.48 37.3201C37.6 35.8001 37.6 32.8601 37.6 30.0001C37.6 27.5401 35.94 25.3401 33.28 24.2401C30.8 23.2001 28.28 23.4601 26.86 24.8601C25.24 26.4801 23.9 29.7401 24.58 32.6001C24.96 34.2201 26.12 36.3801 29.5 37.5001C30.72 37.9001 31.8 38.1201 32.74 38.1201C33.82 38.1201 34.74 37.8401 35.48 37.3001V37.3201ZM30.5 34.4801C28.9 33.9401 27.98 33.1001 27.7 31.8801C27.28 30.1401 28.26 28.0001 29.14 27.1401C29.34 26.9401 29.76 26.8201 30.28 26.8201C30.8 26.8201 31.42 26.9401 32.06 27.2001C33.2 27.6601 34.4 28.6601 34.4 30.0001C34.4 31.8601 34.4 34.1601 33.62 34.7201C33.14 35.0601 32 34.9801 30.5 34.4801Z" fill="currentColor"/>
<path d="M46.9 64.84C46.9 64.84 45.1 66.4 40 66.4C34.9 66.4 33.2 64.92 33.1 64.84C32.48 64.24 31.48 64.26 30.86 64.86C30.24 65.46 30.24 66.5 30.86 67.12C31.12 67.38 33.52 69.58 40 69.58C46.48 69.58 48.88 67.36 49.14 67.12C49.76 66.5 49.74 65.54 49.14 64.9C48.54 64.28 47.54 64.24 46.9 64.82V64.84Z" fill="currentColor"/>
</svg>
