<svg width="16" height="16" viewBox="0 0 16 16" fill="none" xmlns="http://www.w3.org/2000/svg">
<path d="M10.25 14.5L5.75 12.9097L2.7815 14.0683C2.5895 14.1405 2.41125 14.1196 2.24675 14.0055C2.08225 13.8914 2 13.7308 2 13.5239V4.26221C2 4.12691 2.0325 4.00347 2.0975 3.8919C2.1625 3.78032 2.257 3.70283 2.381 3.65941L5.75 2.5L10.25 4.09031L13.2185 2.93165C13.4105 2.85946 13.5887 2.87309 13.7533 2.97255C13.9177 3.07201 14 3.22043 14 3.41783V12.7961C14 12.941 13.9602 13.0667 13.8807 13.1732C13.8017 13.2803 13.6953 13.3555 13.5613 13.3989L10.25 14.5ZM9.875 13.5761V4.71583L6.125 3.39436V12.2546L9.875 13.5761ZM10.625 13.5761L13.25 12.703V3.72908L10.625 4.71658V13.5761ZM2.75 13.2709L5.375 12.2546V3.39436L2.75 4.29705V13.2709Z" fill="currentColor" />
</svg>
