<svg width="15" height="15" viewBox="0 0 15 15" fill="none" xmlns="http://www.w3.org/2000/svg">
<path d="M10.19 2.1875C10.5134 2.38204 10.781 2.65694 10.9668 2.9855C11.1525 3.31405 11.2501 3.68508 11.25 4.0625C11.2501 4.43992 11.1525 4.81095 10.9668 5.1395C10.781 5.46806 10.5134 5.74296 10.19 5.9375M13.75 13.125V12.75C13.75 11.35 13.75 10.65 13.4775 10.115C13.2378 9.64462 12.8554 9.26218 12.385 9.0225M5.9375 6.25C6.22477 6.25 6.50922 6.19342 6.77462 6.08349C7.04002 5.97355 7.28117 5.81242 7.4843 5.6093C7.68742 5.40617 7.84855 5.16502 7.95849 4.89962C8.06842 4.63422 8.125 4.34977 8.125 4.0625C8.125 3.77523 8.06842 3.49078 7.95849 3.22538C7.84855 2.95998 7.68742 2.71883 7.4843 2.5157C7.28117 2.31258 7.04002 2.15145 6.77462 2.04151C6.50922 1.93158 6.22477 1.875 5.9375 1.875C5.35734 1.875 4.80094 2.10547 4.3907 2.5157C3.98047 2.92594 3.75 3.48234 3.75 4.0625C3.75 4.64266 3.98047 5.19906 4.3907 5.6093C4.80094 6.01953 5.35734 6.25 5.9375 6.25ZM1.25 12.75V13.125H10.625V12.75C10.625 11.35 10.625 10.65 10.3525 10.115C10.1128 9.64462 9.73038 9.26218 9.26 9.0225C8.725 8.75 8.025 8.75 6.625 8.75H5.25C3.85 8.75 3.15 8.75 2.615 9.0225C2.14462 9.26218 1.76218 9.64462 1.5225 10.115C1.25 10.65 1.25 11.35 1.25 12.75Z" stroke="currentColor"  stroke-linecap="round" stroke-linejoin="round"/>
</svg>
