<svg width="16" height="16" viewBox="0 0 16 16" fill="none" xmlns="http://www.w3.org/2000/svg">
<path d="M14.5434 3.09414C14.4836 3.02561 14.4102 2.97021 14.3279 2.93145C14.2456 2.89268 14.1562 2.87139 14.0653 2.86891C12.6529 2.83199 10.8659 1.32183 9.68433 0.729219C8.95449 0.364296 8.47264 0.123681 8.11079 0.0602962C8.03734 0.0493602 7.96265 0.0495677 7.88925 0.0609116C7.52741 0.124296 7.04556 0.364912 6.31633 0.729835C5.13479 1.32183 3.34772 2.83199 1.93541 2.86891C1.84444 2.87167 1.755 2.89309 1.67264 2.93183C1.59029 2.97057 1.51677 3.02582 1.45664 3.09414C1.33218 3.23525 1.2679 3.41947 1.27756 3.60737C1.58095 9.77537 3.79325 13.5926 7.6751 15.8111C7.77602 15.8683 7.88802 15.8978 7.99941 15.8978C8.11079 15.8978 8.22279 15.8683 8.32433 15.8111C12.2062 13.5926 14.4179 9.77537 14.7219 3.60737C14.7324 3.41946 14.6682 3.235 14.5434 3.09414ZM11.4566 5.51999L8.18095 10.3538C8.06341 10.5274 7.87879 10.6424 7.69602 10.6424C7.51325 10.6424 7.30895 10.5421 7.18033 10.4135L4.87141 8.10399C4.79602 8.02832 4.7537 7.92587 4.7537 7.81907C4.7537 7.71226 4.79602 7.60981 4.87141 7.53414L5.44187 6.96245C5.51785 6.88766 5.62018 6.84574 5.72679 6.84574C5.8334 6.84574 5.93574 6.88766 6.01172 6.96245L7.51325 8.46399L10.1219 4.61353C10.1822 4.52541 10.275 4.46476 10.3799 4.44482C10.4848 4.42487 10.5934 4.44725 10.6819 4.50707L11.3496 4.95999C11.4378 5.02025 11.4986 5.11297 11.5186 5.2179C11.5387 5.32283 11.5164 5.43143 11.4566 5.51999Z" fill="currentColor"/>
</svg>
