<svg width="16" height="16" viewBox="0 0 16 16" fill="none" xmlns="http://www.w3.org/2000/svg">
<path d="M12.6667 7V7.51C12.6667 7.83095 12.5509 8.14114 12.3407 8.38361C12.1304 8.62609 11.8397 8.78459 11.522 8.83L9.14467 9.17C8.82695 9.21541 8.53627 9.37391 8.326 9.61639C8.11573 9.85886 7.99998 10.1691 8 10.49V11.6667" stroke="currentColor" stroke-linecap="round" stroke-linejoin="round"/>
<path d="M3.33337 8.33326V8.50993C3.33335 8.83088 3.4491 9.14107 3.65937 9.38354C3.86964 9.62602 4.16032 9.78452 4.47804 9.82993L6.85537 10.1699C7.17309 10.2153 7.46377 10.3738 7.67404 10.6163C7.88431 10.8588 8.00006 11.169 8.00004 11.4899V11.6666M6.68371 4.30126C6.12204 4.26926 5.86571 3.75626 6.16104 3.27726C6.34257 2.9841 6.5313 2.69546 6.72704 2.4116C6.98537 2.0356 7.20437 1.75793 7.38404 1.55293C7.73537 1.15293 8.26404 1.15293 8.61571 1.55293C8.79537 1.7576 9.01437 2.0356 9.27237 2.4116C9.46823 2.69535 9.65706 2.98388 9.83871 3.27693C10.134 3.75626 9.87771 4.26926 9.31571 4.30126C8.98571 4.31993 8.55571 4.33326 8.00004 4.33326C7.44437 4.33326 7.01404 4.31993 6.68371 4.30126Z" stroke="currentColor"  stroke-linecap="round" stroke-linejoin="round"/>
<path d="M8 11.6668C8.44203 11.6668 8.86595 11.8424 9.17851 12.155C9.49107 12.4676 9.66667 12.8915 9.66667 13.3335C9.66667 13.7755 9.49107 14.1995 9.17851 14.512C8.86595 14.8246 8.44203 15.0002 8 15.0002C7.55797 15.0002 7.13405 14.8246 6.82149 14.512C6.50893 14.1995 6.33333 13.7755 6.33333 13.3335C6.33333 12.8915 6.50893 12.4676 6.82149 12.155C7.13405 11.8424 7.55797 11.6668 8 11.6668ZM8 11.6668V4.33351M4.66667 7.00017C4.66667 7.35379 4.52619 7.69293 4.27614 7.94298C4.02609 8.19303 3.68696 8.33351 3.33333 8.33351C2.97971 8.33351 2.64057 8.19303 2.39052 7.94298C2.14048 7.69293 2 7.35379 2 7.00017C2 6.64655 2.14048 6.30741 2.39052 6.05736C2.64057 5.80731 2.97971 5.66684 3.33333 5.66684C3.68696 5.66684 4.02609 5.80731 4.27614 6.05736C4.52619 6.30741 4.66667 6.64655 4.66667 7.00017ZM13.9907 5.10851C13.9753 4.68184 13.652 4.35817 13.225 4.34284C13.039 4.33641 12.8528 4.3333 12.6667 4.33351C12.4518 4.33373 12.2657 4.33684 12.1083 4.34284C11.6817 4.35817 11.358 4.68151 11.3427 5.10851C11.3362 5.29455 11.3331 5.48069 11.3333 5.66684C11.3336 5.88173 11.3367 6.06784 11.3427 6.22517C11.358 6.65184 11.6813 6.97551 12.1083 6.99084C12.2659 6.99684 12.452 6.99995 12.6667 7.00017C12.8816 6.99995 13.0677 6.99684 13.225 6.99084C13.6517 6.97551 13.9753 6.65217 13.9907 6.22517C13.9967 6.06784 13.9998 5.88173 14 5.66684C13.9998 5.45195 13.9967 5.26584 13.9907 5.10851Z" stroke="currentColor" stroke-linecap="round" stroke-linejoin="round"/>
</svg>
